<svg width="48" height="48" viewBox="0 0 328 328" fill="none" version="1.1" xmlns="http://www.w3.org/2000/svg">
  <path fill-rule="evenodd" clip-rule="evenodd" d="m139.1839 162.63961.685 135.613s-.493 11.434 3.489 24.148c.419 1.153-.031 2.386-1.063 2.983-1.027.593-2.313.429-3.127-.446-19.593-20.962-58.860996-63.172-58.860996-63.172s-19.162-15.468-6.311-53.637c14.514-43.344 43.901996-67.686 43.901996-67.686s4.535-5.853 13.753-4.993c9.213.864 7.495 20.967 7.495 20.967l.015 5.701-1.757 1.816c.654-.427 1.238-.882 1.78-1.294zm-37.535 77.368 1.028.949s2.442 2.625 6.378 6.856l-.238-44.496c-2.123 4.514-4.112 9.358-5.863 14.525-3.973996 11.769-1.436 21.743-1.305 22.166z" fill="#fff" id="path1"/>
  <path fill-rule="evenodd" clip-rule="evenodd" d="M143.3579 322.40061c.419 1.153-.031 2.386-1.063 2.983-1.027.593-2.313.429-3.127-.446-19.593-20.962-58.860996-63.172-58.860996-63.172s-19.162-15.468-6.311-53.637c14.514-43.344 43.901996-67.686 43.901996-67.686s4.535-5.853 13.753-4.993c9.213.864 7.495 20.967 7.495 20.967l.723 141.836s-.493 11.434 3.489 24.148z" fill="#000091" id="path2"/>
  <path fill-rule="evenodd" clip-rule="evenodd" d="M177.77291 9.2816163c-.473-1.16-.007-2.392.971-3.073 1.041-.626 2.351-.472 3.206.447 23.816 25.5139997 76.207 81.8279997 76.207 81.8279997s24.147 19.491994 7.953 67.590994c-18.29 54.621-50.605 150.063-50.605 150.063s-5.913 19.104-17.529 18.021c-11.61-1.089-9.24-38.156-9.24-38.156l-5.637-243.496994s.667-16.166-5.326-33.2239997zm45.352 98.0709937 1.209 52.257c1.87-5.511 3.636-10.812 5.284-15.774 5.008-14.832 1.809-27.4 1.645-27.933l-1.297-1.196s-2.622-2.819-6.841-7.354z" fill="#fff" id="path3"/>
  <path fill-rule="evenodd" clip-rule="evenodd" d="M177.77291 9.2816163c-.473-1.16-.007-2.392.971-3.073 1.041-.626 2.351-.472 3.206.447 23.816 25.5139997 76.207 81.8279997 76.207 81.8279997s24.147 19.491994 7.953 67.590994c-18.29 54.621-50.605 150.063-50.605 150.063s-5.913 19.104-17.529 18.021c-11.61-1.089-9.24-38.156-9.24-38.156l-5.637-243.496994s.667-16.166-5.326-33.2239997z" fill="#e1000f" id="path4"/>
  <path d="M103.4439 100.03462c-.098-.003-.196-.007-.294-.011-26.984996-1.135004-47.940996-23.929004-46.804996-50.911004 1.13-26.885 23.765-47.7849998 50.618996-46.8149998.1.004.195.008.295.012 26.986 1.1340001 47.939 23.9279998 46.806 50.9109998-1.13 26.884-23.765 47.784004-50.621 46.814004z" fill="#000091" id="path5"/>
</svg>
