<svg width="50" height="50" viewBox="0 0 50 50" fill="none" version="1.1" id="svg2" xmlns="http://www.w3.org/2000/svg">
  <path d="M33.673472 45.199882c1.798885-.50446 3.521773-1.425059 4.65229-3.051614 1.115933-1.59287 1.429988-3.613381 1.429988-5.557689V8.1044135c0-.504378-.02732-1.0096804-.08812-1.5089234.893486.3514173 1.582189.9321422 2.065904 1.7421336.570804.9210095.856104 2.1338703.856104 3.6385833v28.933504c0 2.036738-.499326 3.560799-1.498181 4.572595C40.092601 46.494102 38.587847 47 36.577195 47H25.648118c.258803-.04519.518222-.09181.778463-.139877 2.280546-.407511 4.690904-.960651 7.228405-1.655106z" fill="#c9191e" id="path1" stroke-width="2.05399"/>
  <path fill-rule="evenodd" clip-rule="evenodd" d="M7.410362 40.306865V11.334376c0-1.7641729.473486-3.1002529 1.420417-4.0082813.9599121-.9080284 2.231148-1.4074357 3.813707-1.4982427 2.334936-.1426907 4.546612-.3372653 6.635069-.5837442 2.088457-.2594191 4.086168-.5577818 5.992888-.8950472 1.919866-.3372653 3.787765-.7134538 5.603904-1.1285448 1.867899-.441033 3.30138-.2205165 4.300236.66157.99865.8820659 1.498181 2.2895222 1.498181 4.2223072v28.485981c0 1.699472-.291872 2.964114-.875617 3.794337-.583744.843164-1.56966 1.459361-2.957541 1.848387-2.464584.674736-4.786621 1.206514-6.965906 1.59554-2.179284.402171-4.306603.706984-6.382099.914642-2.075496.207453-4.202856.369719-6.38212.486385-1.803096.103727-3.204041-.272359-4.2028763-1.128462-.9988148-.843164-1.4982427-2.108011-1.4982427-3.794338Zm7.127287-23.712136c2.857348-.181839 5.475756-.461182 7.854893-.838192.577172-.09411 1.153522-.192131 1.727612-.293824.600998-.106417 1.035417-.630041 1.035417-1.238885 0-.788466-.713556-1.382254-1.488527-1.250079-.4451.07594-.892459.149735-1.342489.221399-2.355106.375305-4.957738.653745-7.807589.835091-.426779.02752-.766344.160479-.984602.425505-.206405.250628-.307544.552072-.307544.895684 0 .349343.117879.653416.353143.903386l.0033.0033c.255003.255003.57902.365405.956379.336608zm-.000986 6.460254c2.857718-.181983 5.476331-.461326 7.855879-.838233 2.389614-.389642 4.753963-.844396 7.091815-1.363891.474472-.105432.829813-.271476 1.007483-.529314.174794-.247855.261062-.531963.261062-.846902 0-.355197-.135153-.66118-.398474-.909774-.283451-.267676-.679666-.330035-1.148592-.233477l-.0031.000678c-2.227759.505117-4.520423.945534-6.8782 1.321229-2.355106.375285-4.957738.653724-7.807589.835071-.426779.02754-.766344.160479-.984602.425505-.205378.249396-.307544.543774-.307544.876315 0 .360475.116523.671655.352999.922858l.0068.0064c.254181.23929.57485.348152.948184.333774zm.000699 6.459802c2.857471-.194718 5.475837-.480634 7.854975-.857541 2.390024-.376702 4.753962-.824883 7.09202-1.344337.475499-.105781.83125-.278727 1.008715-.55047.172946-.246273.25983-.522946.25983-.82591 0-.355135-.135153-.661179-.398474-.909712-.283451-.267635-.679666-.330077-1.148592-.233539l-.0023.000616c-2.227964.492137-4.52104.926145-6.879022 1.30182-2.355311.375469-4.958026.660358-7.808021.854665-.426573.02752-.765995.160623-.98417.425382-.205378.24956-.307544.543897-.307544.876233 0 .360475.116523.67186.352999.923063l.0068.0064c.254181.239289.57485.348151.948184.333773zm7.85518 5.557484c-2.379137.377113-4.997524.656455-7.854852.838234-.377379.02875-.701396-.08154-.95642-.33665l-.0032-.0033c-.23531-.249957-.35325-.553947-.35325-.903331 0-.343633.101139-.644953.307544-.895746.218258-.264965.557947-.397858.984745-.425381 2.849851-.181368 5.45234-.459889 7.807446-.835153.45003-.07168.897389-.145423 1.342489-.22142.774971-.132072 1.488527.461737 1.488527 1.250059 0 .608803-.434419 1.13257-1.035417 1.238967-.57409.101673-1.15044.199648-1.727612.293721z" fill="#000091" id="path2" stroke-width="2.05399"/>
</svg>
