<svg width="38" height="38" viewBox="0 0 38 38" fill="none" version="1.1" xmlns="http://www.w3.org/2000/svg">
  <path d="M32.8659 11.5499H9.99841c-2.59734 0-5.20919 2.0438-5.83372 4.565L2.375 23.3395V9.32047c0-1.50916.34605-2.64581 1.03814-3.40994C4.11411 5.13684 5.0857 4.75 6.32792 4.75h3.76658q.6921 0 1.1979.10029c.3371.06686.6477.18148.9316.34386.284.15283.5812.36774.8918.64474l.7586.67339c.3727.31521.7231.53967 1.0514.67339.3283.13373.7321.20059 1.2112.20059h12.3778c1.4286 0 2.5111.39639 3.2475 1.18918.6606.70264 1.0285 1.69416 1.1036 2.97446" fill="#c9191e"/>
  <path d="M6.74091 32.0626c-1.43742 0-2.42245-.4114-2.95508-1.2343-.53509-.8129-.60618-2.0124-.21326-3.5985L6.32592 16.115c.33759-1.3628 1.7494-2.4675 3.15337-2.4675H34.9004c1.404 0 2.2684 1.1047 1.9309 2.4675l-2.7534 11.1148c-.3929 1.5861-1.045 2.7856-1.9562 3.5985-.9136.8229-2.0049 1.2343-3.2737 1.2343z" fill="#000091"/>
</svg>
