<svg width="48" height="48" viewBox="0 0 330 330" fill="none" version="1.1" xmlns="http://www.w3.org/2000/svg">
  <path fill-rule="evenodd" clip-rule="evenodd" d="M113.50791 182.873c-.64.719-1.712.881-2.548.382-.83-.498-1.201-1.509-.882-2.409 8.937-25.344 28.205-79.66 28.205-79.66s4.658-23.147001 42.807-29.142001c43.285-6.875 119.046-18.647999 119.046-18.647999s14.969-2.73 18.324 5.488c3.35 8.214999-22.493 19.654999-22.493 19.654999L133.66391 167.997s-10.822 5.079-20.156 14.876zm49.829-64.691 34.832-19.198001c-4.376.678-8.574 1.351001-12.502 1.984001-11.768 1.839-19.122 8.418-19.424 8.717l-.351 1.295s-.98 2.761-2.555 7.202z" fill="#fff" id="path1"/>
  <path fill-rule="evenodd" clip-rule="evenodd" d="M113.50791 182.873c-.64.719-1.712.881-2.548.382-.83-.498-1.201-1.509-.882-2.409 8.937-25.344 28.205-79.66 28.205-79.66s4.658-23.147001 42.807-29.142001c43.285-6.875 119.046-18.647999 119.046-18.647999s14.969-2.73 18.324 5.488c3.35 8.214999-22.493 19.654999-22.493 19.654999L133.66391 167.997s-10.822 5.079-20.156 14.876z" fill="#000091" id="path2"/>
  <path fill-rule="evenodd" clip-rule="evenodd" d="M216.49191 147.127c.64-.719 1.712-.881 2.548-.382.83.498 1.201 1.509.882 2.409-8.937 25.344-28.205 79.66-28.205 79.66s-4.658 23.147-42.806 29.142c-43.28599 6.875-119.046993 18.648-119.046993 18.648s-14.969 2.73-18.324-5.488c-3.3489998-8.215 22.494-19.655 22.494-19.655l162.301993-89.458s10.822-5.079 20.156-14.876zm-84.661 83.889c4.376-.678 8.574-1.351 12.502-1.984 11.768-1.839 19.122-8.418 19.424-8.717l.351-1.295s.98-2.761 2.555-7.202z" fill="#fff" id="path3"/>
  <path fill-rule="evenodd" clip-rule="evenodd" d="M216.49191 147.127c.64-.719 1.712-.881 2.548-.382.83.498 1.201 1.509.882 2.409-8.937 25.344-28.205 79.66-28.205 79.66s-4.658 23.147-42.806 29.142c-43.28599 6.875-119.046993 18.648-119.046993 18.648s-14.969 2.73-18.324-5.488c-3.3489998-8.215 22.494-19.655 22.494-19.655l162.301993-89.458s10.822-5.079 20.156-14.876z" fill="#e1000f" id="path4"/>
</svg>
