<svg width="48" height="48" viewBox="0 0 119 119" fill="none" version="1.1" id="svg8" xmlns="http://www.w3.org/2000/svg">
  <path fill-rule="evenodd" clip-rule="evenodd" d="M112.80208 7.8636059H96.47194c-7.534855 0-13.652321 6.7290971-13.652321 15.0176151v14.964807h16.458966c7.464085 0 13.523495-6.665986 13.523495-14.876477z" fill="#000091" id="path1" stroke-width=".895833"/>
  <path fill-rule="evenodd" clip-rule="evenodd" d="M46.174481 7.8636059h16.329877c7.535123 0 13.65259 6.7290971 13.65259 15.0176151v14.964807H59.698429c-7.464173 0-13.523948-6.665986-13.523948-14.876477z" fill="#000091" id="path2" stroke-width=".895833"/>
  <path fill-rule="evenodd" clip-rule="evenodd" d="M6.1979183 44.508788H22.527796c7.535123 0 13.652589 6.729142 13.652589 15.01766v14.964807H19.721867c-7.464191 0-13.5239487-6.666075-13.5239487-14.876477z" fill="#e1000f" id="path3" stroke-width=".895833"/>
  <path fill-rule="evenodd" clip-rule="evenodd" d="M6.1979183 81.153926H22.527796c7.535123 0 13.652589 6.729141 13.652589 15.01757v14.964894H19.721867c-7.464191 0-13.5239487-6.6659-13.5239487-14.876206z" fill="#e1000f" id="path4" stroke-width=".895833"/>
  <path fill-rule="evenodd" clip-rule="evenodd" d="M46.174481 44.508788h16.329877c7.535123 0 13.65259 6.729142 13.65259 15.01766v14.964807H59.698429c-7.464173 0-13.523948-6.666075-13.523948-14.876477z" fill="#cecece" id="path5" stroke-width=".895833"/>
  <path fill-rule="evenodd" clip-rule="evenodd" d="M112.80208 44.508788H96.47194c-7.534855 0-13.652321 6.729142-13.652321 15.01766v14.964807h16.458966c7.464085 0 13.523495-6.666075 13.523495-14.876477z" fill="#cecece" id="path6" stroke-width=".895833"/>
  <path fill-rule="evenodd" clip-rule="evenodd" d="M46.174481 81.153926h16.329877c7.535123 0 13.65259 6.729141 13.65259 15.01757v14.964894H59.698429c-7.464173 0-13.523948-6.6659-13.523948-14.876206z" fill="#cecece" id="path7" stroke-width=".895833"/>
  <path fill-rule="evenodd" clip-rule="evenodd" d="M112.80208 81.153926H96.47194c-7.534855 0-13.652321 6.729141-13.652321 15.01757v14.964894h16.458966c7.464085 0 13.523495-6.6659 13.523495-14.876206z" fill="#cecece" id="path8" stroke-width=".895833"/>
</svg>
