<svg width="48" height="48" viewBox="0 0 48 48" fill="none" version="1.1" id="svg8" xmlns="http://www.w3.org/2000/svg">
  <path fill-rule="evenodd" clip-rule="evenodd" d="M2.5 18.797738c0-.466543.3780938-.844567.8444802-.844567H9.086859c3.039226 0 5.506781 2.714382 5.506781 6.05759v5.191674c0 .466369-.378025.844393-.844393.844393H7.9551458C4.9441066 30.046829 2.5 27.358135 2.5 24.046169Z" fill="#c9191e" id="path1" stroke-width="1.73565"/>
  <path fill-rule="evenodd" clip-rule="evenodd" d="M2.5 33.578701c0-.466541.3780938-.844566.8444802-.844566H9.086859c3.039226 0 5.506781 2.714382 5.506781 6.057415v5.191848c0 .466369-.378025.844393-.844393.844393H7.9551458C4.9441066 44.827792 2.5 42.139098 2.5 38.827479Z" fill="#c9191e" id="path2" stroke-width="1.73565"/>
  <path fill-rule="evenodd" clip-rule="evenodd" d="M45.5 4.0166887c0-.4664037-.378024-.8444802-.844393-.8444802h-5.742396c-3.039296 0-5.506868 2.7140175-5.506868 6.057486v5.1917785c0 .466369.378198.844393.844567.844393h5.794465c3.010657 0 5.454625-2.689093 5.454625-6.0007645z" fill="#000091" id="path3" stroke-width="1.73565"/>
  <path fill-rule="evenodd" clip-rule="evenodd" d="M18.625033 4.0166887c0-.4664037.378198-.8444802.844566-.8444802h5.742396c3.039122 0 5.506868 2.7140175 5.506868 6.057486v5.1917785c0 .466369-.378198.844393-.844567.844393h-5.794118c-3.011004 0-5.455145-2.689093-5.455145-6.0007645z" fill="#000091" id="path4" stroke-width="1.73565"/>
  <path fill-rule="evenodd" clip-rule="evenodd" d="M18.625033 18.797565c0-.466369.378198-.844393.844566-.844393h5.742396c3.039122 0 5.506868 2.714382 5.506868 6.057416v5.191674c0 .466369-.378198.844567-.844567.844567h-5.794118c-3.011004 0-5.455145-2.688694-5.455145-6.000834z" fill="#000091" id="path5" stroke-width="1.73565"/>
  <path fill-rule="evenodd" clip-rule="evenodd" d="M45.5 18.797565c0-.466369-.378024-.844393-.844393-.844393h-5.742396c-3.039296 0-5.506868 2.714382-5.506868 6.057416v5.191674c0 .466369.378198.844567.844567.844567h5.794465c3.010657 0 5.454625-2.688694 5.454625-6.000834z" fill="#000091" id="path6" stroke-width="1.73565"/>
  <path fill-rule="evenodd" clip-rule="evenodd" d="M18.625033 33.578529c0-.466369.378198-.844394.844566-.844394h5.742396c3.039122 0 5.506868 2.714382 5.506868 6.057415v5.191674c0 .466369-.378198.844567-.844567.844567h-5.794118c-3.011004 0-5.455145-2.688694-5.455145-6.000486z" fill="#000091" id="path7" stroke-width="1.73565"/>
  <path fill-rule="evenodd" clip-rule="evenodd" d="M45.5 33.578529c0-.466369-.378024-.844394-.844393-.844394h-5.742396c-3.039296 0-5.506868 2.714382-5.506868 6.057415v5.191674c0 .466369.378198.844567.844567.844567h5.794465c3.010657 0 5.454625-2.688694 5.454625-6.000486z" fill="#000091" id="path8" stroke-width="1.73565"/>
</svg>
