<svg width="48" height="48" viewBox="0 0 540 540" fill="none" version="1.1" id="svg1" xmlns="http://www.w3.org/2000/svg">
  <path fill-rule="evenodd" clip-rule="evenodd" d="m50.59715 434.03832 203.808-163.259c12.065-9.683 11.49-20.273-3.612-31.273l-191.249-138.634c-28.398-20.601001-30.2053-1.396002-30.2053 11.904v313.219c0 15.922 5.5823 20.601 21.2583 8.043z" fill="#000091" id="path1"/>
  <path fill-rule="evenodd" clip-rule="evenodd" d="m492.11015 107.19632-310.101 251.578c-9.193 7.386-8.618 11.079-.328 16.497l65.009 42.765c19.533 12.804 33.405 8.29 49.823-5.007l202.001-163.588c9.847-8.043 12.065-11.901 11.901-25.608l-1.889-113.026c-.164-13.214002-4.104-13.543002-16.416-3.611z" fill="#e1000f" id="path2"/>
  <path fill-rule="evenodd" clip-rule="evenodd" d="m502.86415 275.54232-95.543 75.678c-11.821 9.358-13.132 10.015-.821 19.536l93.243 71.903c9.111 7.06 10.918 8.783 10.918-3.529v-159.812c0-8.372-.739-9.355-7.797-3.776z" fill="#e1000f" id="path3"/>
</svg>
