<svg width="100" height="100" viewBox="0 0 100 100" fill="none" version="1.1" id="svg3" xmlns="http://www.w3.org/2000/svg">
  <path d="M39.803202 60.411884c-.706485-1.613153-2.589912-2.349573-4.20676-1.644689-1.616849.704761-2.35487 2.583877-1.648507 4.197029 2.681196 6.122464 8.807724 10.411268 15.945384 10.411268 7.137536 0 13.264064-4.288804 15.94526-10.411268.706362-1.613152-.03166-3.492268-1.648507-4.197029-1.616848-.704884-3.500275.03153-4.206638 1.644689-1.701108 3.884253-5.582652 6.588608-10.090115 6.588608-4.507587 0-8.389131-2.704355-10.090117-6.588608z" fill="#000091" id="path2" stroke-width="1.23189"/>
  <path fill-rule="evenodd" clip-rule="evenodd" d="M72.402796 12.6425h.972573c10.131137 0 18.508689 8.301666 18.508689 18.579644v42.698211C91.884058 84.198333 83.506506 92.5 73.375369 92.5H26.62463c-10.131138 0-18.5086875-8.301667-18.5086875-18.381189V31.222144c0-10.277978 8.3775495-18.579644 18.5086875-18.579644h.972573v-2.220963c0-1.6135226 1.308014-2.921537 2.921536-2.921537 1.613522 0 2.921413 1.3080144 2.921413 2.921537V12.6425h13.638311v-2.220963C47.078463 8.8080144 48.386477 7.5 50 7.5c1.613522 0 2.921537 1.3080144 2.921537 2.921537V12.6425h13.63831v-2.220963C66.559847 8.8080144 67.867739 7.5 69.48126 7.5c1.613523 0 2.921536 1.3080144 2.921536 2.921537zm-44.805593 5.928812h-.972573c-7.014471 0-12.665738 5.730354-12.665738 12.650832v6.325355h72.082216v-6.325355c0-6.920478-5.651268-12.650832-12.665739-12.650832h-.972573v1.625963c0 1.613522-1.308013 2.921413-2.921536 2.921413-1.613521 0-2.921413-1.307891-2.921413-2.921413v-1.625963H52.921536v1.625963c0 1.613522-1.308015 2.921413-2.921537 2.921413s-2.921536-1.307891-2.921536-2.921413v-1.625963H33.440152v1.625963c0 1.613522-1.307891 2.921413-2.921413 2.921413s-2.921536-1.307891-2.921536-2.921413zm-.972573 67.999872h46.743717c7.014348 0 12.665618-5.532018 12.665618-12.452373v-30.6425H13.958892v30.444044c0 7.118811 5.651267 12.650829 12.665738 12.650829z" fill="#000091" id="path3" stroke-width="1.23189"/>
</svg>
