<svg width="100" height="100" viewBox="0 0 100 100" fill="none" xmlns="http://www.w3.org/2000/svg">
<path d="M0 20C0 8.9543 8.95431 0 20 0H80C91.0457 0 100 8.95431 100 20V80C100 91.0457 91.0457 100 80 100H20C8.9543 100 0 91.0457 0 80V20Z" fill="white"/>
<path d="M41.7226 58.452C41.1491 57.1425 39.6202 56.5447 38.3077 57.1169C36.9952 57.689 36.3961 59.2144 36.9695 60.5239C39.146 65.4939 44.1193 68.9754 49.9134 68.9754C55.7074 68.9754 60.6807 65.4939 62.8572 60.5239C63.4306 59.2144 62.8315 57.689 61.519 57.1169C60.2065 56.5447 58.6776 57.1425 58.1042 58.452C56.7233 61.6051 53.5724 63.8004 49.9134 63.8004C46.2543 63.8004 43.1034 61.6051 41.7226 58.452Z" fill="#000091"/>
<path fill-rule="evenodd" clip-rule="evenodd" d="M68.1858 19.6745H68.9753C77.1994 19.6745 84 26.4135 84 34.7568V69.4177C84 77.761 77.1994 84.5 68.9753 84.5H31.0247C22.8006 84.5 16 77.761 16 69.5788V34.7568C16 26.4135 22.8006 19.6745 31.0247 19.6745H31.8142V17.8716C31.8142 16.5618 32.876 15.5 34.1858 15.5C35.4956 15.5 36.5573 16.5618 36.5573 17.8716V19.6745H47.6284V17.8716C47.6284 16.5618 48.6902 15.5 50 15.5C51.3098 15.5 52.3716 16.5618 52.3716 17.8716V19.6745H63.4427V17.8716C63.4427 16.5618 64.5044 15.5 65.8142 15.5C67.124 15.5 68.1858 16.5618 68.1858 17.8716V19.6745ZM31.8142 24.4873H31.0247C25.3306 24.4873 20.7431 29.139 20.7431 34.7568V39.8915H79.2569V34.7568C79.2569 29.139 74.6694 24.4873 68.9753 24.4873H68.1858V25.8072C68.1858 27.117 67.124 28.1787 65.8142 28.1787C64.5044 28.1787 63.4427 27.117 63.4427 25.8072V24.4873H52.3716V25.8072C52.3716 27.117 51.3098 28.1787 50 28.1787C48.6902 28.1787 47.6284 27.117 47.6284 25.8072V24.4873H36.5573V25.8072C36.5573 27.117 35.4956 28.1787 34.1858 28.1787C32.876 28.1787 31.8142 27.117 31.8142 25.8072V24.4873ZM31.0247 79.6872H68.9696C74.6636 79.6872 79.2511 75.1965 79.2511 69.5788V44.7043H20.7431V69.4177C20.7431 75.1965 25.3306 79.6872 31.0247 79.6872Z" fill="#000091"/>
</svg>
