<svg width="48" height="48" viewBox="0 0 365 365" fill="none" version="1.1" xmlns="http://www.w3.org/2000/svg">
  <path fill-rule="evenodd" clip-rule="evenodd" d="M162.872 7.753c12.142-7.004 27.114-7.004 39.256 0 31.056 17.923 91.187 52.531 122.244 70.453C336.514 85.211 344 98.089 344 112.097v140.806c0 14.008-7.486 26.987-19.628 33.991-31.057 17.82-91.188 52.43-122.244 70.353-12.142 7.004-27.114 7.004-39.256 0-31.056-17.923-91.187-52.533-122.244-70.353C28.486 279.89 21 266.911 21 252.903V112.097c0-14.008 7.486-26.886 19.628-33.891 31.057-17.922 91.188-52.53 122.244-70.453Z" fill="#000091" id="path1"/>
  <path d="M121.645 268.465V90.402h54.565c39.266 0 63.489 20.096 63.489 53.165 0 21.622-10.454 37.647-28.812 46.042l55.84 78.856h-42.581l-47.681-71.988h-18.614v71.988zm56.605-148.047h-20.399v46.042h20.399c15.298 0 24.222-8.903 24.222-23.402 0-13.482-8.924-22.64-24.222-22.64z" fill="#fff" id="path2"/>
</svg>
