<svg width="152" height="152" viewBox="0 0 150.00029 111.468" fill="none" version="1.1" id="svg3" xmlns="http://www.w3.org/2000/svg">
  <path d="M2.5689544 35.249394c-.5952669 3.054327-.5952669 6.815546-.5952669 13.115917v15.155384c0 7.816777 0 11.725312 1.1368445 15.223733 1.0058828 3.096293 2.6512188 5.945274 4.8293593 8.364861 2.4615927 2.734085 5.8464397 4.688255 12.6159397 8.596595l13.125181 7.577156c5.991033 3.45948 9.331091 5.38735 12.514384 6.31527V62.83727c0-2.337507-1.276803-4.488263-3.328958-5.607601z" fill="#c9191e" id="path1" stroke-width=".973687"/>
  <path d="M112.30571 42.117517V66.49927c0 3.371162 1.46541 6.575924 4.01454 8.78179l17.54886 15.186441c1.02626.868521 2.09247 1.579305 3.19858 2.132353 1.14506.513128 2.25117.77018 3.31737.77018 2.29012 0 4.1265-.750706 5.50915-2.251143 1.42158-1.540356 2.13239-3.534447 2.13239-5.983246V23.528853c0-2.44841-.71081-4.423027-2.13239-5.923755-1.38265-1.540162-3.21903-2.310244-5.50915-2.310244-1.0662 0-2.17231.256662-3.31737.770082-1.10611.513419-2.17232 1.224301-3.19858 2.132547l-17.53523 15.126075c-2.55789 2.206158-4.02817 5.41637-4.02817 8.793959z" fill="#000091" id="path2" stroke-width=".973687"/>
  <path d="M8.4336508 26.541896c-.4880147-.266204-.9996902-.44643-1.517792-.545941.3268685-.417415.6684399-.824023 1.0242272-1.219141 2.46169-2.733988 5.84644-4.688157 12.616038-8.596498l13.12518-7.5777403c6.769501-3.9083401 10.154348-5.8625102 13.752824-6.627431 3.183975-.6768029 6.474665-.6768029 9.65864 0 3.598475.7649208 6.983324 2.7190909 13.752823 6.627431l12.970364 7.4883563c.0517.0297.103406.0595.155207.08938 6.769499 3.908341 10.154348 5.862608 12.616231 8.596498 2.178152 2.419004 3.822717 5.268763 4.829517 8.364569 1.1363 3.498811 1.1363 7.407151 1.1363 15.223928v15.155384c0 7.816777 0 11.725312-1.1363 15.223733-1.0068 3.096293-2.651365 5.946247-4.829517 8.364861-2.461883 2.734085-5.846536 4.688255-12.615841 8.595621-.05804.03408-.116551.06816-.174486.101263l-12.951475 7.476871c-6.769499 3.90835-10.154348 5.86251-13.752823 6.62782-.147904.0312-.296003.0614-.444392.0896V62.83727c0-6.1625-3.366153-11.832806-8.776184-14.783633z" fill="#000091" id="path3" stroke-width=".973687"/>
</svg>
