<svg width="479.815" height="127.447" viewBox="0 0 479.815 127.447" fill="none" version="1.1" id="svg31" xmlns="http://www.w3.org/2000/svg">
  <path d="M41.6279 84.5078c0 23.5822 15.9791 41.4232 37.3945 41.4232.9652 0 1.918-.037 2.8521-.112V98.6872c-6.7939-1.2143-11.5453-6.8998-11.5453-14.1794 0-7.2797 4.7514-12.9713 11.5453-14.1856V43.1964c-.9341-.0809-1.8869-.1183-2.8521-.1183-21.4154 0-37.3945 17.8472-37.3945 41.4297z" fill="#000091" id="path1"/>
  <path d="M296.15 45.9783h-27.929v79.1297h27.929Z" fill="#e1000f" id="path2"/>
  <path d="M119.531 43.0781H91.6016v82.0289h27.9294z" fill="#000091" id="path3"/>
  <path fill-rule="evenodd" clip-rule="evenodd" d="m27.8544 12.3591.0748 111.7099H0V12.3591Z" fill="#000091" id="path4"/>
  <path fill-rule="evenodd" clip-rule="evenodd" d="M164.459 61.6758c7.292 0 13.339 2.6404 19.703 6.2086l11.95-17.0689c-7.759-5.1187-18.003-10.0819-32.743-10.0819-2.341 0-4.627.1308-6.837.3924v23.2213c.685-1.918 4.047-2.6715 7.927-2.6715z" fill="#e1000f" id="path5"/>
  <path fill-rule="evenodd" clip-rule="evenodd" d="M167.019 72.5548c-5.96-1.1334-10.313-2.1547-11.022-4.4525v24.6846c.635.1308 1.264.2616 1.874.3862 6.825 1.3949 11.477 2.4846 11.477 5.4301 0 .4297-.131.8094-.318 1.1706.193.3612.318.7412.318 1.1772 0 2.634-3.724 4.035-9.466 4.035-1.338 0-2.621-.106-3.885-.249v20.986c1.606.131 3.256.205 4.975.205 20.17 0 35.838-9.465 35.838-27.6175 0-19.5472-17.686-23.4268-29.791-25.7557z" fill="#e1000f" id="path6"/>
  <path fill-rule="evenodd" clip-rule="evenodd" d="M157.871 93.173c-.61-.1245-1.239-.2554-1.874-.3861v2.3414c.635.137 1.264.2679 1.874.3924 5.822 1.1894 10.038 2.167 11.159 4.2531.187-.3612.318-.741.318-1.1707 0-2.9454-4.652-4.0352-11.477-5.4301z" fill="#e1000f" id="path7"/>
  <path fill-rule="evenodd" clip-rule="evenodd" d="M440.715 102.34c-5.512 0-9.952-2.13-12.872-5.8474V124.44c3.823.941 7.859 1.482 12.093 1.482 14.117 0 26.534-5.43 35.066-14.272l-18.308-16.1351c-2.946 3.1011-8.687 6.8251-15.979 6.8251z" fill="#e1000f" id="path8"/>
  <path fill-rule="evenodd" clip-rule="evenodd" d="M437.919 44.5889c-3.5 0-6.857.4109-10.076 1.1146v27.406c2.428-3.1136 5.785-4.9382 9.764-4.9382 5.586 0 10.4 3.5682 12.417 9.7767h-22.181v15.9791h51.35c.467-2.0114.622-5.1188.622-7.2921 0-24.3546-18.003-42.0461-41.896-42.0461z" fill="#e1000f" id="path9"/>
  <path d="M342.946 45.9783h-27.929v79.1297h27.929z" fill="#e1000f" id="path10"/>
  <path d="M342.946 0h-27.929v27.8369h27.929z" fill="#e1000f" id="path11"/>
  <path d="M390.218 27.8362h-27.929v18.6193h-.162V71.9h.162v25.2887c0 17.2243 8.999 30.2583 30.414 30.2583 6.209 0 11.172-1.09 15.979-3.575V97.8115c-2.796 1.3949-6.202 2.6345-9.932 2.6345-5.891 0-8.532-3.2572-8.532-7.9152V71.9h18.464V46.4555h-18.464z" fill="#e1000f" id="path12"/>
  <path d="M251.305 98.9288c-6.203 0-10.393-4.1909-10.393-10.5489V44.9387h-27.93v47.3207c0 20.3256 15.207 33.6706 38.323 33.6706 2.721 0 5.324-.206 7.815-.56V95.6782c-1.831 2.0487-4.527 3.2506-7.815 3.2506z" fill="#e1000f" id="path13"/>
</svg>
