<svg width="48" height="48" viewBox="0 0 475 475" fill="none" version="1.1" id="svg1" xmlns="http://www.w3.org/2000/svg">
  <path fill-rule="evenodd" clip-rule="evenodd" d="M197.5768 231.7507c.437-1.12 1.667-1.834 2.906-1.631 1.239.204 2.143 1.324 2.143 2.546.061 36.141.061 113.004.061 113.004s10.26 36.549-73.273 79.409c-62.230001 31.865-99.948001 44.389-99.948001 44.389s-18.996 7.635-25.3959998-1.324c-8.1772-11.606 18.2549998-38.786 18.2549998-38.786L173.9998 267.7887s14.882-14.761 23.577-36.038z" fill="#fff" id="path1"/>
  <path fill-rule="evenodd" clip-rule="evenodd" d="M197.5768 231.7507c.437-1.12 1.667-1.834 2.906-1.631 1.239.204 2.143 1.324 2.143 2.546.061 36.141.061 113.004.061 113.004s10.26 36.549-73.273 79.409c-62.230001 31.865-99.948001 44.389-99.948001 44.389s-18.996 7.635-25.3959998-1.324c-8.1772-11.606 18.2549998-38.786 18.2549998-38.786L173.9998 267.7887s14.882-14.761 23.577-36.038z" fill="#000091" id="path2"/>
  <path fill-rule="evenodd" clip-rule="evenodd" d="M269.2168 210.1757v-12.217l-.163-2.139c.295-.611 7.843-14.454 24.553-23.515 5.567-3.054 11.52-6.312 17.737-9.672z" fill="#fff" id="path3"/>
  <path fill-rule="evenodd" clip-rule="evenodd" d="M227.2928 337.8337c-.407 1.12-1.555 1.834-2.733 1.63-1.168-.203-2.021-1.224-2.021-2.445-.051-40.926-.051-139.065-.051-139.065s-5.343-37.364 48.811-66.786c61.407-33.494004 169.025-91.725004 169.025-91.725004s21.048-12.115 30.475-1.527c9.417 10.588-23.333 41.637-23.333 41.637L251.1748 301.0837s-15.228 15.065-23.882 36.75z" fill="#000091" id="path4"/>
  <path fill-rule="evenodd" clip-rule="evenodd" d="M148.9118 276.6147 45.498799 162.2857s-28.077-26.472-23.364-43.677c4.704-17.103 44.798 5.908 78.697001 15.478 33.888 9.57 70.002 24.636 70.002 24.636s8.806 2.342 16.314 13.744c9.406 14.355 10.95 32.477 4.104 48.155-8.93 20.259-23.029 34.204-23.029 34.204zm1.503-75.746c3.89 3.563 8.258 3.054 8.258 3.054l-5.719-1.932s-.894-.409-2.539-1.122zm-10.758-4.171 7.365 8.144c.508-1.018.996-2.036 1.463-3.054.193-.509.274-1.018.264-1.527-2.265-.916-5.364-2.138-9.092-3.563z" fill="#fff" id="path5"/>
  <path fill-rule="evenodd" clip-rule="evenodd" d="M148.9118 276.6147 45.498799 162.2857s-28.077-26.472-23.364-43.677c4.704-17.103 44.798 5.908 78.697001 15.478 33.888 9.57 70.002 24.636 70.002 24.636s8.806 2.342 16.314 13.744c9.406 14.355 10.95 32.477 4.104 48.155-8.93 20.259-23.029 34.204-23.029 34.204z" fill="#e1000f" id="path6"/>
  <path fill-rule="evenodd" clip-rule="evenodd" d="m276.2558 292.3547 103.412 114.329s28.078 26.472 23.365 43.677c-4.704 17.104-44.798-5.908-78.697-15.478-33.888-9.569-70.002-24.636-70.002-24.636s-8.807-2.341-16.314-13.744c-9.406-14.354-10.95-32.477-4.104-48.155 8.93-20.259 23.029-34.204 23.029-34.204zm-1.503 75.746c-3.89-3.563-8.258-3.054-8.258-3.054l5.719 1.933s.894.408 2.539 1.121zm3.393-3.973c-.508 1.018-.996 2.036-1.463 3.054-.193.509-.274 1.019-.264 1.528 2.265.916 5.364 2.137 9.092 3.563z" fill="#fff" id="path7"/>
  <path fill-rule="evenodd" clip-rule="evenodd" d="m276.2558 292.3547 103.412 114.329s28.078 26.472 23.365 43.677c-4.704 17.104-44.798-5.908-78.697-15.478-33.888-9.569-70.002-24.636-70.002-24.636s-8.807-2.341-16.314-13.744c-9.406-14.354-10.95-32.477-4.104-48.155 8.93-20.259 23.029-34.204 23.029-34.204z" fill="#e1000f" id="path8"/>
  <path d="M205.4788 132.6007c35.848 0 64.907-29.125 64.907-65.051004 0-35.925-29.059-65.0499995-64.907-65.0499995-35.847 0-64.908 29.1249995-64.908 65.0499995 0 35.926004 29.061 65.051004 64.908 65.051004z" fill="#000091" id="path9"/>
</svg>
