<svg width="48" height="48" viewBox="0 0 455 455" fill="none" version="1.1" id="svg1" xmlns="http://www.w3.org/2000/svg">
  <g transform="translate(15.624592 2.2049985)" stroke-width="1" id="g1">
    <path fill-rule="evenodd" clip-rule="evenodd" d="M204.52725 193.39845c-9.34401-.643-21.12401-3.69-35.00803-11.70701-44.17504-25.32302-121.29209-69.86405-121.29209-69.86405s-15.547012-8.46001-12.26201-17.796017c3.289003-9.331008 35.287028-.393001 35.287028-.393001S160.73722 125.9554 206.50125 125.9264c45.69504.00094 138.9321-32.265028 138.9321-32.265028s32.01603-8.949007 35.31503.358001c3.238 9.349007-12.23001 17.803007-12.23001 17.803007s-77.17706 44.52004-121.32909 69.87806c-13.92801 7.995-25.67802 11.06401-35.01402 11.70401-1.24401.095-2.51501.147-3.82701.133-1.308-.009-2.628-.035-3.821-.139zm18.14802-35.84503c-5.85301.651-11.29302.989-16.17202.967-3.55901.004-7.39-.15399-11.34701-.512 4.376 1.744 8.23901 2.65901 11.68901 2.901.522.002.978.032 1.508.047.519-.004 1.022-.032 1.598-.083 3.672-.24499 7.9-1.279 12.72402-3.32z" fill="#fff" id="path1"/>
    <path fill-rule="evenodd" clip-rule="evenodd" d="M204.52725 193.39845c-9.34401-.643-21.12401-3.69-35.00803-11.70701-44.17504-25.32302-121.29209-69.86405-121.29209-69.86405s-15.547012-8.46001-12.26201-17.796017c3.289003-9.331008 35.287028-.393001 35.287028-.393001S160.73722 125.9554 206.50125 125.9264c45.69504.00094 138.9321-32.265028 138.9321-32.265028s32.01603-8.949007 35.31503.358001c3.238 9.349007-12.23001 17.803007-12.23001 17.803007s-77.17706 44.52004-121.32909 69.87806c-13.92801 7.995-25.67802 11.06401-35.01402 11.70401-1.24401.095-2.51501.147-3.82701.133-1.308-.009-2.628-.035-3.821-.139z" fill="#000091" id="path2"/>
    <path d="M208.33225 95.870371c-.096 0-.192-.000941-.288-.000941-26.49302-.157053-47.84204-21.744073-47.68504-48.218094C160.51522 21.275316 181.96223 0 208.32025 0c.099 0 .192.0005.291.0009 26.49202.1566001 47.84004 21.744417 47.68404 48.217437-.155 26.37602-21.60302 47.652034-47.96304 47.652034z" fill="#000091" id="path3"/>
    <path fill-rule="evenodd" clip-rule="evenodd" d="M175.94322 254.9575c4.11401 8.408 7.36301 20.12601 7.35802 36.14902.141 50.89105.098 139.89912.098 139.89912s.442 17.68501-9.292 19.51001c-9.73001 1.819-17.98402-30.34103-17.98402-30.34103s-16.73502-93.60007-39.64203-133.1901c-22.846025-39.54503-97.428082-104.10008-97.428082-104.10008s-23.7640186-23.23202-17.3480137-30.74103c6.484005-7.476 21.5450157 1.68301 21.5450157 1.68301s77.17106 44.52903 121.22309 70.06005c13.89301 8.05501 22.42802 16.68902 27.65002 24.44902.70501 1.029 1.386 2.102 2.02901 3.245.647 1.13701 1.28399 2.292 1.79099 3.37701zm-40.14002 2.217c3.49199 4.74 6.504 9.27801 8.924 13.51101 1.78301 3.078 3.562 6.473 5.23 10.07601-.67599-4.65901-1.815-8.45901-3.32999-11.56501-.26001-.454-.46101-.86401-.71401-1.33-.26299-.44701-.538-.868-.871-1.34101-2.048-3.055-5.058-6.197-9.239-9.351z" fill="#fff" id="path4"/>
    <path fill-rule="evenodd" clip-rule="evenodd" d="M175.94322 254.9575c4.11401 8.408 7.36301 20.12601 7.35802 36.14902.141 50.89105.098 139.89912.098 139.89912s.442 17.68501-9.292 19.51001c-9.73001 1.819-17.98402-30.34103-17.98402-30.34103s-16.73502-93.60007-39.64203-133.1901c-22.846025-39.54503-97.428082-104.10008-97.428082-104.10008s-23.7640186-23.23202-17.3480137-30.74103c6.484005-7.476 21.5450157 1.68301 21.5450157 1.68301s77.17106 44.52903 121.22309 70.06005c13.89301 8.05501 22.42802 16.68902 27.65002 24.44902.70501 1.029 1.386 2.102 2.02901 3.245.647 1.13701 1.28399 2.292 1.79099 3.37701z" fill="#000091" id="path5"/>
    <path d="M89.517162 300.42853c.048.083.096.167.143.25 13.111008 23.00502 5.077003 52.27504-17.945014 65.37506-22.936018 13.054-52.098039 5.13099-65.27705-17.68002-.049001-.085-.096-.166-.1440001-.251-13.1110102-23.00602-5.0760039-52.27404 17.9440131-65.37605 22.937018-13.05401 52.099041-5.13001 65.279051 17.68201z" fill="#000091" id="path6"/>
    <path fill-rule="evenodd" clip-rule="evenodd" d="M247.80828 252.5665c.507-1.084 1.144-2.24001 1.791-3.376.643-1.14301 1.32401-2.21701 2.029-3.24601 5.22201-7.76 13.75701-16.39301 27.65003-24.44902 44.05203-25.53102 121.22309-70.06005 121.22309-70.06005s15.06101-9.15901 21.54401-1.68301c6.41701 7.50901-17.34701 30.74103-17.34701 30.74103s-74.58206 64.55505-97.42907 104.10107c-22.90602 39.59004-39.64203 133.18911-39.64203 133.18911s-8.25301 32.16003-17.98402 30.34103c-9.73401-1.825-9.292-19.51002-9.292-19.51002s-.042-89.00806.099-139.89811c-.005-16.02401 3.244-27.74202 7.358-36.15002zm25.97602 25.78602c1.67701-3.58501 3.45701-6.97901 5.24001-10.05701 2.42-4.234 5.432-8.77201 8.917-13.52401-4.171 3.173-7.237 6.36601-9.33801 9.47901-.22699.35799-.503.779-.752 1.25099-.26599.441-.46599.85001-.761 1.39201-1.46999 3.037-2.617 6.825-3.306 11.45901z" fill="#fff" id="path7"/>
    <path fill-rule="evenodd" clip-rule="evenodd" d="M247.80828 252.5665c-4.114 8.408-7.36301 20.12601-7.358 36.15002-.141 50.89005-.099 139.89811-.099 139.89811s-.44201 17.68502 9.292 19.51002c9.73101 1.819 17.98402-30.34103 17.98402-30.34103s16.73601-93.59907 39.64203-133.18911c22.84701-39.54602 97.42907-104.10107 97.42907-104.10107s23.76402-23.23202 17.34701-30.74103c-6.483-7.476-21.54401 1.68301-21.54401 1.68301s-77.17106 44.52903-121.22309 70.06005c-13.89302 8.05601-22.42802 16.68902-27.65003 24.44902-.70499 1.029-1.386 2.103-2.029 3.24601-.647 1.13599-1.284 2.292-1.791 3.376z" fill="#e1000f" id="path8"/>
    <path d="M334.23335 298.03853c-.048.083-.096.166-.143.249-13.11102 23.00602-5.07701 52.27604 17.94501 65.37605 22.93602 13.05401 52.09804 5.13 65.27705-17.68002.05-.085.096-.167.145-.25199 13.11001-23.00502 5.07501-52.27305-17.94501-65.37505-22.93702-13.05402-52.09904-5.13101-65.27905 17.68201z" fill="#e1000f" id="path9"/>
  </g>
</svg>
