<svg width="48" height="48" viewBox="0 0 45 45" fill="none" version="1.1" id="svg1" xmlns="http://www.w3.org/2000/svg">
  <path fill-rule="evenodd" clip-rule="evenodd" d="M2.93785 18.826712c0-1.5013 1.21889-2.7202 2.72014-2.7202 1.50124 0 2.72013 1.2189 2.72013 2.7202v4.8927L28.80145 3.2960605c1.0617-1.061397 2.7851-1.061397 3.8468 0 1.0617 1.0616721 1.0617 2.7854221 0 3.846812L7.5814 32.210012c-.77796.778-1.9479 1.0105-2.96441.5895-1.016516-.4211-1.67914-1.4129-1.67914-2.5132z" fill="#060383" id="path1"/>
  <path fill-rule="evenodd" clip-rule="evenodd" d="M42.06215 26.173312c0 1.5013-1.2189 2.7202-2.7202 2.7202-1.5012 0-2.7201-1.2189-2.7201-2.720199v-4.892701l-20.4233 20.4234c-1.0617 1.0613-2.7852 1.0613-3.84685 0-1.06166-1.0617-1.06166-2.7855 0-3.8469l25.06685-25.0671c.778-.77796 1.9479-1.01053 2.9644-.58946 1.0165.42106 1.6792 1.41286 1.6792 2.51316z" fill="#c62b23" id="path2"/>
</svg>
