<svg width="40" height="40" viewBox="0 0 40 40" fill="none" xmlns="http://www.w3.org/2000/svg">
<path fill-rule="evenodd" clip-rule="evenodd" d="M0 16.3267C0 14.8254 1.21889 13.6065 2.72014 13.6065C4.22138 13.6065 5.44027 14.8254 5.44027 16.3267V21.2194L25.8636 0.796048C26.9253 -0.265349 28.6487 -0.265349 29.7104 0.796048C30.7721 1.85772 30.7721 3.58147 29.7104 4.64286L4.64355 29.71C3.86559 30.488 2.69565 30.7205 1.67914 30.2995C0.662624 29.8784 0 28.8866 0 27.7863V16.3267Z" fill="#060383"/>
<path fill-rule="evenodd" clip-rule="evenodd" d="M39.1243 23.6733C39.1243 25.1746 37.9054 26.3935 36.4041 26.3935C34.9029 26.3935 33.684 25.1746 33.684 23.6733V18.7806L13.2607 39.204C12.199 40.2653 10.4755 40.2653 9.41385 39.204C8.35219 38.1423 8.35219 36.4185 9.41385 35.3571L34.4807 10.29C35.2587 9.51204 36.4286 9.27947 37.4451 9.70054C38.4616 10.1216 39.1243 11.1134 39.1243 12.2137V23.6733Z" fill="#C62B23"/>
</svg>
