<svg width="40" height="40" viewBox="0 0 40 40" fill="none" xmlns="http://www.w3.org/2000/svg">
<path fill-rule="evenodd" clip-rule="evenodd" d="M21.7322 0.963989C22.7817 0.963989 23.7867 1.40851 24.5293 2.12001C25.272 2.87598 25.6899 3.89868 25.6899 4.92147C25.6899 8.0343 25.6899 11.8589 25.6899 11.8589C25.6899 11.8589 21.701 11.8589 18.5571 11.8589C16.4848 11.8589 14.8083 10.1689 14.8083 8.12333C14.8083 4.96603 14.8083 0.963989 14.8083 0.963989C14.8083 0.963989 18.6194 0.963989 21.7322 0.963989Z" fill="#2CB0AF"/>
<path fill-rule="evenodd" clip-rule="evenodd" d="M39.9968 7.90164C39.9968 8.95111 39.5523 9.95613 38.8408 10.6988C38.0848 11.4414 37.0621 11.8593 36.0393 11.8593C32.9265 11.8593 29.1019 11.8593 29.1019 11.8593C29.1019 11.8593 29.1019 7.87045 29.1019 4.72649C29.1019 2.65424 30.7919 0.977783 32.8375 0.977783C35.9948 0.977783 39.9968 0.977783 39.9968 0.977783C39.9968 0.977783 39.9968 4.78881 39.9968 7.90164Z" fill="#2CB0AF"/>
<path fill-rule="evenodd" clip-rule="evenodd" d="M21.7322 15.0231C22.7817 15.0231 23.7867 15.4676 24.5293 16.1791C25.272 16.9351 25.6899 17.9578 25.6899 18.9806C25.6899 22.0934 25.6899 25.918 25.6899 25.918H18.5571C16.4848 25.918 14.8083 24.228 14.8083 22.1824C14.8083 19.0251 14.8083 15.0231 14.8083 15.0231C14.8083 15.0231 18.6194 15.0231 21.7322 15.0231Z" fill="#D1D1D1"/>
<path fill-rule="evenodd" clip-rule="evenodd" d="M6.9219 15.0231C7.97137 15.0231 8.97639 15.4676 9.71902 16.1791C10.4617 16.9351 10.8796 17.9578 10.8796 18.9806C10.8796 22.0934 10.8796 25.918 10.8796 25.918H3.74676C1.6745 25.918 -0.00195312 24.228 -0.00195312 22.1824C-0.00195312 19.0251 -0.00195312 15.0231 -0.00195312 15.0231C-0.00195312 15.0231 3.80907 15.0231 6.9219 15.0231Z" fill="#FAC980"/>
<path fill-rule="evenodd" clip-rule="evenodd" d="M21.7322 28.3887C22.7817 28.3887 23.7867 28.8332 24.5293 29.5447C25.272 30.3007 25.6899 31.3234 25.6899 32.3462C25.6899 35.459 25.6899 39.2836 25.6899 39.2836C25.6899 39.2836 21.701 39.2836 18.5571 39.2836C16.4848 39.2836 14.8083 37.5936 14.8083 35.548C14.8083 32.3907 14.8083 28.3887 14.8083 28.3887C14.8083 28.3887 18.6194 28.3887 21.7322 28.3887Z" fill="#D1D1D1"/>
<path fill-rule="evenodd" clip-rule="evenodd" d="M6.9219 28.3887C7.97137 28.3887 8.97639 28.8332 9.71902 29.5447C10.4617 30.3007 10.8796 31.3234 10.8796 32.3462C10.8796 35.459 10.8796 39.2836 10.8796 39.2836C10.8796 39.2836 6.89072 39.2836 3.74676 39.2836C1.6745 39.2836 -0.00195312 37.5936 -0.00195312 35.548C-0.00195312 32.3907 -0.00195312 28.3887 -0.00195312 28.3887C-0.00195312 28.3887 3.80907 28.3887 6.9219 28.3887Z" fill="#FAC980"/>
<path fill-rule="evenodd" clip-rule="evenodd" d="M39.9968 21.9538C39.9968 23.0032 39.5523 24.0083 38.8408 24.7509C38.0848 25.4935 37.0621 25.9115 36.0393 25.9115H29.1019V18.7786C29.1019 16.7064 30.7919 15.0299 32.8375 15.0299C35.9948 15.0299 39.9968 15.0299 39.9968 15.0299C39.9968 15.0299 39.9968 18.8409 39.9968 21.9538Z" fill="#D1D1D1"/>
<path fill-rule="evenodd" clip-rule="evenodd" d="M39.9968 35.3388C39.9968 36.3882 39.5523 37.3933 38.8408 38.1359C38.0848 38.8785 37.0621 39.2965 36.0393 39.2965H29.1019V32.1636C29.1019 30.0914 30.7919 28.4149 32.8375 28.4149C35.9948 28.4149 39.9968 28.4149 39.9968 28.4149C39.9968 28.4149 39.9968 32.2259 39.9968 35.3388Z" fill="#D1D1D1"/>
</svg>
