<svg width="48" height="48" viewBox="0 0 280 280" fill="none" version="1.1" id="svg1" xmlns="http://www.w3.org/2000/svg">
  <path fill-rule="evenodd" clip-rule="evenodd" d="M151.062 18c6.691 0 13.098 2.83 17.832 7.358 4.735 4.813 7.399 11.322 7.399 17.833V87.35H130.82c-13.211 0-23.899-10.757-23.899-23.778V18Z" fill="#2cb0af" id="path1"/>
  <path fill-rule="evenodd" clip-rule="evenodd" d="M267.499 62.161c0 6.68-2.834 13.077-7.37 17.805-4.819 4.727-11.339 7.387-17.86 7.387h-44.227V41.95c0-13.191 10.774-23.862 23.815-23.862h45.642z" fill="#2cb0af" id="path2"/>
  <path fill-rule="evenodd" clip-rule="evenodd" d="M151.062 107.491c6.691 0 13.098 2.829 17.832 7.358 4.735 4.812 7.399 11.322 7.399 17.833v44.159H130.82c-13.211 0-23.899-10.758-23.899-23.778v-45.572z" fill="#d1d1d1" id="path3"/>
  <path fill-rule="evenodd" clip-rule="evenodd" d="M56.642 107.491c6.691 0 13.098 2.829 17.832 7.358 4.735 4.812 7.399 11.322 7.399 17.833v44.159H36.4c-13.211 0-23.899-10.758-23.899-23.778v-45.572z" fill="#fac980" id="path4"/>
  <path fill-rule="evenodd" clip-rule="evenodd" d="M151.062 192.568c6.691 0 13.098 2.829 17.832 7.358 4.735 4.812 7.399 11.322 7.399 17.832v44.16H130.82c-13.211 0-23.899-10.758-23.899-23.779v-45.571z" fill="#d1d1d1" id="path5"/>
  <path fill-rule="evenodd" clip-rule="evenodd" d="M56.642 192.568c6.691 0 13.098 2.829 17.832 7.358 4.735 4.812 7.399 11.322 7.399 17.832v44.16H36.4c-13.211 0-23.899-10.758-23.899-23.779v-45.571z" fill="#fac980" id="path6"/>
  <path fill-rule="evenodd" clip-rule="evenodd" d="M267.499 151.608c0 6.68-2.834 13.077-7.37 17.804-4.819 4.728-11.339 7.388-17.86 7.388h-44.227v-45.403c0-13.191 10.774-23.862 23.815-23.862h45.642z" fill="#d1d1d1" id="path7"/>
  <path fill-rule="evenodd" clip-rule="evenodd" d="M267.499 236.808c0 6.68-2.834 13.077-7.37 17.805-4.819 4.727-11.339 7.387-17.86 7.387h-44.227v-45.403c0-13.191 10.774-23.862 23.815-23.862h45.642z" fill="#d1d1d1" id="path8"/>
</svg>
