<svg width="31" height="30" viewBox="0 0 31 30" fill="none" xmlns="http://www.w3.org/2000/svg">
<path d="M28.4916 16.5252L30.0112 15.0055L28.4916 13.486L29.6348 11.6666L27.8153 10.5233L28.5251 8.4949L26.4969 7.78524L26.7374 5.64982L24.6021 5.40927L24.3614 3.27377L22.2261 3.51432L21.5162 1.48595L19.4882 2.19566L18.3446 0.376192L16.525 1.51951L15.0056 0L13.4861 1.51959L11.6666 0.376373L10.5234 2.19576L8.49506 1.48595L7.7854 3.51424L5.6499 3.27361L5.40935 5.40893L3.27401 5.6495L3.51466 7.78482L1.48611 8.49463L2.19582 10.5229L0.376353 11.6661L1.51975 13.4859L0 15.0055L1.51959 16.5252L0.376353 18.3448L2.19582 19.488L1.48611 21.5163L3.51458 22.2261L3.27401 24.3612L5.40935 24.6019L5.6499 26.7372L7.7854 26.4967L8.49506 28.5248L10.5233 27.8154L11.6666 29.6348L13.486 28.4915L15.0056 29.9969L16.5252 28.4919L18.3446 29.635L19.4878 27.8154L21.5162 28.5252L22.2259 26.4969L24.3614 26.7374L24.6019 24.6019L26.7374 24.3614L26.4967 22.2261L28.5251 21.5163L27.8153 19.4878L29.6348 18.3446L28.4916 16.5252Z" fill="#000091"/>
<path d="M25.4146 17.4077C25.4146 14.4708 23.0337 12.0898 20.0968 12.0898C18.6379 12.0898 17.3165 12.6777 16.3558 13.6291L16.3551 13.6284L15.0002 14.9834L13.8923 13.8756C12.9176 12.7635 11.4878 12.0605 9.89309 12.0605C6.95605 12.0605 4.5752 14.4415 4.5752 17.3784C4.5752 18.9132 5.22604 20.295 6.26585 21.2655L15.0053 30.0004L23.5517 21.4485C24.6196 20.4434 25.4146 19.0252 25.4146 17.4077Z" fill="white"/>
<path d="M16.5242 28.4907C16.1349 28.0999 15.597 27.8584 15.0031 27.8584C14.4091 27.8584 13.8713 28.0999 13.4819 28.4907C13.4882 29.3255 14.1667 30.0004 15.003 30.0004C15.8394 30.0004 16.518 29.3253 16.5242 28.4907Z" fill="#000091"/>
<path d="M13.2263 19.2934C13.2263 19.9356 12.7059 20.456 12.0637 20.456C11.4218 20.456 10.9014 19.9356 10.9014 19.2934C10.9014 18.6513 11.4218 18.1309 12.0637 18.1309C12.7059 18.1309 13.2263 18.6513 13.2263 19.2934Z" fill="#000091"/>
<path d="M19.1214 19.2934C19.1214 19.9356 18.6011 20.456 17.9589 20.456C17.3169 20.456 16.7964 19.9356 16.7964 19.2934C16.7964 18.6513 17.3169 18.1309 17.9589 18.1309C18.6011 18.1309 19.1214 18.6513 19.1214 19.2934Z" fill="#000091"/>
</svg>
