<svg width="100" height="100" viewBox="0 0 100 100" fill="none" version="1.1" id="svg3" xmlns="http://www.w3.org/2000/svg">
  <path d="M38.435985 61.807941c-.801213-1.829449-2.937176-2.664611-4.770816-1.865214-1.83364.799258-2.670618 2.930331-1.869544 4.75978 3.040699 6.943382 9.988691 11.807242 18.08339 11.807242 8.094559 0 15.042551-4.86386 18.08325-11.807242.801073-1.829449-.0359-3.960522-1.869544-4.75978-1.83364-.799397-3.969603.03576-4.770677 1.865214-1.929198 4.405066-6.331191 7.472029-11.443029 7.472029-5.111978 0-9.513971-3.066963-11.44303-7.472029z" fill="#000091" id="path2" stroke-width="1.39706"/>
  <path fill-rule="evenodd" clip-rule="evenodd" d="M75.406632 7.633492h1.102978c11.48955 0 20.99039 9.414779 20.99039 21.07086v48.423317c0 11.656081-9.50084 21.070861-20.99039 21.070861H23.49039C12.000838 98.19853 2.5 88.78375 2.5 77.352735V28.704352c0-11.656081 9.500838-21.07086 20.99039-21.07086h1.102978V5.114735c0-1.829868 1.483397-3.313265 3.313264-3.313265 1.829868 0 3.313125 1.483397 3.313125 3.313265v2.518757h15.466978V5.114735c0-1.829868 1.483397-3.313265 3.313265-3.313265 1.829868 0 3.313265 1.483397 3.313265 3.313265v2.518757h15.466978V5.114735c0-1.829868 1.483257-3.313265 3.313125-3.313265 1.829867 0 3.313264 1.483397 3.313264 3.313265zm-50.813264 6.723765H23.49039c-7.954993 0-14.364 6.498698-14.364 14.347095v7.173478h81.74722v-7.173478c0-7.848397-6.409007-14.347095-14.364-14.347095h-1.102978v1.843978c0 1.829867-1.483397 3.313125-3.313264 3.313125-1.829868 0-3.313125-1.483258-3.313125-3.313125v-1.843978H53.313265v1.843978c0 1.829867-1.483397 3.313125-3.313265 3.313125-1.829868 0-3.313265-1.483258-3.313265-3.313125v-1.843978H31.219757v1.843978c0 1.829867-1.483257 3.313125-3.313125 3.313125-1.829867 0-3.313264-1.483258-3.313264-3.313125zM23.49039 91.47476h53.011257c7.954853 0 14.363863-6.273768 14.363863-14.122025v-34.75114H9.12639v34.526074c0 8.073323 6.409007 14.347091 14.364 14.347091z" fill="#000091" id="path3" stroke-width="1.39706"/>
</svg>
