<svg width="48" height="48" viewBox="0 0 48 48" fill="none" version="1.1" id="svg3" xmlns="http://www.w3.org/2000/svg">
  <path fill-rule="evenodd" clip-rule="evenodd" d="m29.506941 35.324722-8.450375 9.348514c-.727459.812964-1.919752 1.002464-2.858664.460542L5.3823773 37.736545c-1.5933116-.921252-2.57567-2.628393-2.57567-4.47106V14.744749c0-1.842598.9823584-3.536487 2.57567-4.457786L21.423845 1.0199747c1.593245-.9212994 3.557896-.9212994 5.151141 0l16.041402 9.2669883c1.593246.921299 2.575736 2.615188 2.575736 4.457786v2.113213c0 .704514-.261634 1.382288-.735877 1.910673L32.618986 31.869827l-4.892313-6.923486c2.408851-1.097378 3.779914-3.210921 3.779914-6.05605 0-4.349072-3.178403-6.99072-8.330866-6.99072h-7.160526v23.425151h4.75151v-9.470173h2.442856l6.256608 9.470171zm-6.062983-19.469059c2.006414 0 3.178403 1.191963 3.178403 2.96695 0 1.910341-1.171989 3.0891-3.178403 3.0891h-2.677253v-6.05605z" fill="#000091" id="path1" stroke-width="1.65069"/>
  <path fill-rule="evenodd" clip-rule="evenodd" d="M27.548728 46.691369c-.06784-.737033-.222513-1.586146-.571964-1.992217-.305542-.345655-.737528-.563876-1.140956-.705175.112412-.110101.179925-.177944.179925-.177944l1.344156-1.484631c2.669661-1.402425 6.881065-3.628215 10.199942-5.383394l-7.747677 8.542651c-.918774.487117-1.69955.898304-2.263426 1.20071zm13.602673-13.705016c.01337-1.301238.03764-3.647198.05942-5.933072l1.48529-1.63699c.445852.34714.976053.592267 1.561388.701049.301581.06306.604482.08336.900946.06916-.0081.787709-.01585 1.609424-.02394 2.40555zm-3.59157 3.961655 3.59157-3.961655c-.0066.633535-.01056 1.02739-.01056 1.02739l.01188.180092c-.02542.05117-.673482 1.208634-2.089608 1.956232-.471933.251893-.976383.520792-1.503283.797941z" fill="#fff" id="path2" stroke-width="1.65069"/>
  <path fill-rule="evenodd" clip-rule="evenodd" d="M44.748749 22.397181c.04044-.102342.149057-.170021.258333-.143115.108615.01816.187353.113403.186198.224661-.03103 3.510191-.114063 11.574964-.114063 11.574964s.41779 3.14671-4.171623 5.573884c-5.204459 2.763419-14.324684 7.566926-14.324684 7.566926s-1.784396 1.000484-2.569794.102012c-.784407-.898637 2.002617-3.480479 2.002617-3.480479l16.735021-18.459993s1.244455-1.202858 1.997995-2.95886z" fill="#c9191e" id="path3" stroke-width="1.65069"/>
</svg>
