<svg width="48" height="48" viewBox="0 0 520 520" fill="none" xmlns="http://www.w3.org/2000/svg">
  <path d="M403.203 0H116.797C52.3047 0 0 52.3047 0 116.797v286.406C0 467.695 52.3047 520 116.797 520h286.406C467.695 520 520 467.695 520 403.203V116.797C520 52.3047 467.695 0 403.203 0Z" fill="#000091"/>
  <path fill-rule="evenodd" clip-rule="evenodd" d="M238.708 69.7395c13.173-7.6174 29.417-7.6174 42.59 0L413.93 146.36c13.173 7.617 21.295 21.622 21.295 36.857v153.131c0 15.234-8.122 29.349-21.295 36.966l-132.632 76.511c-13.173 7.617-29.417 7.617-42.59 0l-132.632-76.511c-13.1733-7.617-21.2956-21.732-21.2956-36.966V183.217c0-15.235 8.1223-29.24 21.2956-36.857l132.632-76.6205Z" fill="#fff"/>
  <path fill-rule="evenodd" clip-rule="evenodd" d="M246.442 205.892h-53.081v41.68h-29.142V176.7h200.562v29.192h-89.197v155.005h-29.142V205.892Z" fill="#E1000F"/>
</svg>
