<svg width="35" height="28" viewBox="0 0 35 28" fill="none" xmlns="http://www.w3.org/2000/svg">
<path d="M34.3348 -0.0078125H-0.000976562V24.8811H10.924V27.9922H23.4098V24.8811H34.3192L34.3348 -0.0078125ZM31.2134 21.77H3.12046V3.1033H31.2134V21.77Z" fill="#000091"/>
<path fill-rule="evenodd" clip-rule="evenodd" d="M23.1201 19.439H11.2148C10.7432 19.439 10.3574 19.0545 10.3574 18.5845V17.73C10.3574 15.609 14.339 14.4563 16.8219 14.3281C16.8202 14.3247 16.8194 14.3221 16.8185 14.3204C16.93 14.3161 17.0466 14.3153 17.1674 14.317C17.2892 14.3153 17.4058 14.3161 17.5164 14.3204C17.5155 14.3221 17.5147 14.3247 17.513 14.3281C19.9959 14.4563 23.9775 15.609 23.9775 17.73V18.5845C23.9775 19.0545 23.5917 19.439 23.1201 19.439ZM17.2163 5.7666C19.1094 5.7666 20.6458 7.29791 20.6458 9.18471C20.6458 11.0715 19.1094 12.6028 17.2163 12.6028C15.3233 12.6028 13.7869 11.0715 13.7869 9.18471C13.7869 7.29791 15.3233 5.7666 17.2163 5.7666Z" fill="#000091"/>
</svg>
