<svg width="32.51749mm" height="36.696365mm" viewBox="0 0 32.51749 36.696365" version="1.1" id="svg1" xmlns="http://www.w3.org/2000/svg">
  <g id="layer1" transform="translate(-89.429165 -130.175)" fill-rule="evenodd" clip-rule="evenodd">
    <path d="M104.18825 131.2739c.64691-.3773 1.44463-.3773 2.09259 0 2.82337 1.62269 10.58016 6.10103 13.40379 7.73615.64797.37756 1.04537 1.05675 1.04537 1.8116v15.47231c0 .74215-.3974 1.4343-1.04537 1.8116-2.82363 1.63513-10.58042 6.10076-13.40379 7.73615-.64796.3773-1.44568.3773-2.09259 0-2.82337-1.63539-10.580421-6.10102-13.40379-7.73615-.647964-.3773-1.046691-1.06945-1.046691-1.8116v-15.47231c0-.75485.398727-1.43404 1.046691-1.8116 2.823369-1.63512 10.58042-6.11346 13.40379-7.73615z" stroke="#dfdffb" stroke-width=".264282" stroke-miterlimit="1.5" stroke-linecap="round" stroke-linejoin="round" id="path26"/>
    <path d="M104.64228 131.08261c.64717-.36804 1.44542-.36804 2.09232 0 2.84374 1.64914 10.69155 6.17775 13.53503 7.8142.64717.38074 1.04563 1.06574 1.04563 1.81425v15.62867c0 .74824-.39846 1.43351-1.04563 1.81398-2.84348 1.63645-10.69129 6.16533-13.53503 7.80177-.6469.38047-1.44515.38047-2.09232 0-2.84348-1.63644-10.691286-6.16532-13.534763-7.80177-.647171-.38047-1.046957-1.06574-1.046957-1.81398v-15.62867c0-.74851.399786-1.43351 1.046957-1.81425 2.843477-1.63645 10.691283-6.16506 13.534763-7.8142z" stroke="#000091" stroke-width="1.26279" stroke-miterlimit="1.5" stroke-linecap="round" stroke-linejoin="round" id="path69"/>
    <path d="M104.64228 131.08261c.64717-.36804 1.44542-.36804 2.09232 0 2.84374 1.64914 10.69155 6.17775 13.53503 7.8142.64717.38074 1.04563 1.06574 1.04563 1.81425v15.62867c0 .74824-.39846 1.43351-1.04563 1.81398-2.84348 1.63645-10.69129 6.16533-13.53503 7.80177-.6469.38047-1.44515.38047-2.09232 0-2.84348-1.63644-10.691286-6.16532-13.534763-7.80177-.647171-.38047-1.046957-1.06574-1.046957-1.81398v-15.62867c0-.74851.399786-1.43351 1.046957-1.81425 2.843477-1.63645 10.691283-6.16506 13.534763-7.8142z" fill="#fff" id="path70" stroke-width=".264583"/>
    <path d="M94.689975 151.29915c-.0021-2.31563.000265-4.63126.0066-6.94663.0021-.89297.478631-1.71768 1.252008-2.16615 2.824692-1.64068 5.655737-3.27474 8.491017-4.90034.77337-.44424 1.7264-.44424 2.49978 0 2.83527 1.6256 5.66843 3.25966 8.49312 4.90034.77126.44847 1.24778 1.27318 1.2499 2.16615.0108 3.26602.0108 6.53653 0 9.80255-.002.89297-.47864 1.71741-1.2499 2.16614-2.1664 1.25809-4.33731 2.51407-6.51033 3.7637-.0855-.0405-.17939-.0831-.28205-.13018-.75644-.33549-1.84388-.67283-1.88859-.71781-.16458-.16246-.26723-.83741-.0344-1.62348.0619-.20717.14764-.41858.26088-.62786.008-.0172.0169-.0323.0257-.0492.006-.009.0106-.0172.0148-.0257.0812-.13679.17092-.26908.27146-.39529.008-.0106.0191-.0233.0299-.0341.0127-.0193.0278-.0362.0426-.0534.0236-.0278.0492-.0553.0749-.0831l.004-.004c.12171-.13043.26061-.25426.4146-.3675.13864-.0685.30956-.10266.48075-.13679.58314 0 1.16655.17092 1.74969.23918.0685 0 .13679.0341.20505.0683.20743.0365.44662.0365.65193-.0339.2413-.0685.51488-.20505.61728-.51276.0833-.25004.17329-.51488.0344-.75618-.20531-.30771.20717-.41011.34396-.61728.10239-.17092-.0685-.27358-.10266-.4445-.0341-.0704-.17092-.0341-.2413-.1389.2413-.1024.61728-.30745.44635-.61728-.10239-.17092-.27331-.44423-.0683-.61727.23919-.13679.61754-.10266.7202-.34184.17092-.41222-.20532-.75406-.41249-1.09802-.10266-.20505-.23918-.34158-.37597-.54875-.13679-.23944-.30983-.44661-.37835-.71993-.1024-.27358.0341-.51488.0341-.78819.0341-.51488-.1024-1.02976-.23919-1.54464-.10266-.23918-.13679-.51488-.24156-.75406-.032-.13653-.0661-.27332-.17092-.41222-.0341-.0683-.0341-.17092 0-.23919.1389-.10265.27569-.20505.41248-.34184.10266-.17304.0341-.41222-.13679-.51488-.2413-.10451-.20717.23919-.37809.30771h-.10265c-.0341-.10265.0341-.13679.10265-.20505 0-.0341 0-.10266-.0344-.10266-.13653 0-.27332-.0341-.30745-.10451-.34423-.47863-.82471-.71993-1.33747-.92498.13653.0341.27332.0683.41011.0683.24156.0341.51488.0341.72019-.0683.17304-.0683.20717-.34184.27543-.51488.0685-.13679-.0341-.34184-.10239-.44424-.15822-.25426-.40402-.41883-.65617-.54901-.12805-.0683-.33311-.17727-.49133-.26273-.0405-.0214-.0725-.0386-.0982-.0513-.002-.002-.007-.004-.009-.004-.28629-.16007-1.9677-.62177-3.62162-.62389-1.65152 0-3.5126.66014-3.5126.66014h.002c-.17091.0598-.43365.15822-.70934.28204-.32887.14738-.78634.35031-1.05965.6858-.27358.34158-.549281.68554-.651675 1.09564-.446616.2757-.720195.6858-.959379 1.09802-.309827.58315-.754327 1.09803-.687916 1.74943.07038.54901.207168 1.06389.309562 1.64703.0344.20505.06853.37597.13679.58314.06853.20505 0 .44424.102658.61728.07038.10265.03625.23944.173037.30771v.13679c.03413.0341.03413.0683.102659.0683v.1389c.273314.34158.617273.65141.788458 1.02738.06826.20717-.342106.10266-.515144.0341-.341841-.17065-.54901-.44423-.822589-.68553 0 0-.03413.0341-.03413.0683.136789.2413.651668.54901.378354.72205-.138907.0685-.310092-.10478-.446882.0341-.03413.0683 0 .13679 0 .20505-.205052-.13679-.41222-.0683-.617272-.13652-.13679-.0341-.170921-.30983-.344223-.30983-.444236-.10266-.856457-.20505-1.303073-.23918-.406136-.045-.79719-.1069-1.194594-.11325zm4.610894 6.96595c-.508529-.29474-1.017059-.58737-1.523207-.88238.08758-.006.175155-.0169.269082-.0384.211402-.0471.410104-.17092.617537-.23918v.0683c.512763-.20505.890852-.6514 1.405999-.82232.0341 0 .10239.0683.17065.0341.30983-.27543.65194-.58314 1.09829-.51488 0 .0341 0 .0683.0344.0683h.0233c-.12171.0921-.24342.18389-.36724.27358-.0323.0362 0 .0707.0362.0707.17092-.0707.27358-.20744.4445-.2757-.0344.0341-.0344.10239-.0685.13652-.11959.0834-.24342.18389-.37174.29925-.42307.36115-.77999.75618-1.145384 1.16628h.0042c-.194205.2114-.392907.42095-.587375.61516-.01297.013-.02567.0257-.04075.0407zm-2.292615-1.32662c-.273314-.16033-.546894-.31829-.820473-.47863.681831-.0661 1.384565-.0447 2.029884-.38444.549275-.27331 1.064154-.6514 1.508389-1.13003 0 0 .03413.0341.03413.0685-.102393.34158-.307445.58315-.583141.7882-.205052.10266-.341842.27331-.512763.34157-.102658.0685-.207169.13891-.309827.20744-.459317.16007-.933714.37809-1.3462.58737zm-.892969-.51911c-.05556-.032-.111125-.0661-.166687-.0982-.773377-.44873-1.249892-1.27317-1.252008-2.16614-.0021-.59373-.0021-1.18983-.0042-1.78356.380206.064.754063.15796 1.123686.27543.309827.10266.583406.23918.856985.41011.138642.10477.207169.20743.343958.27569.170921.1024.412221.1024.583142.0341h.170921c.515144-.13679 1.064154-.27331 1.405996-.6514 0 .0341.03625.0341.07038.0341-.104511.27331-.104511.58314-.309563.82232 0 .0341-.0344.1024.03413.13679h.06826c-.03413 0-.06826 0-.06826.0362 0 .0683.102393 0 .136789.0683-.170921.0344-.342106.0685-.4445.20506 0 .0344.06826.0341.102394.0341-.06826.0685-.170921.0344-.205052.10266 0 0 .03413.0341.06826.0341-.03413 0-.06826 0-.06826.0344v.10451c-.104775 0-.138906.0683-.207169.1024.13679.10266.241565 0 .37809 0-.37809.13679-.6858.34184-1.064154.4445-.06826 0 .000264.10477-.06826.10477.102658.0683.170921-.0344.273579-.0344-.478631.27358-.959379.51276-1.474258.82259 0 0-.06853.0683-.06853.13679h-.13679c-.06826.0341-.03413.13652-.102394.20505.170921.10239.375973-.13679.478632 0 .03413 0-.06853.0339-.13679.0339-.03413 0-.03413.0685-.06826.0685h-.102659c-.06826.0704-.136789.10451-.136789.20717h-.01058zm-1.422929-4.5884v-.12383c.37174-.0791.730515-.14949 1.089554-.12382.102659 0 .241565-.0341.343959 0-.506413-.0278-.963613.10451-1.433513.24765zm15.614384-2.67441c-.20293-.0513-.37809 0-.58314 0-.2757.0683-.51514.10239-.75433.20505.20505-.13679.41037-.27331.65167-.34184.17092-.0341.34184-.13653.51488-.13653.20505-.0344.41037-.10477.58129-.0344.17304.0685.44635.0685.48075.17092.0683.20505-.10266.41222-.30771.54901-.0341.0685.10239.10266.10239.17092-.0341.0683-.13679.10239-.20717.10239-.0683.0344-.13679.13679-.20505.20744.0683 0 0 .10239.0683.10239-.13679.17092.0685.51276-.13679.58314-.23918.0685-.51488.0685-.78819 0 .13679-.0341.30745.0344.41222-.10451v-.13679c0-.0341-.0362-.0341-.0706-.0341-.0341.0341-.0683.0341-.0683.0341 0-.0683-.0683-.13679-.10239-.13679-.20532.0341-.37835-.0683-.51514-.20505.10266-.0341.20531-.0683.30982-.0341.10266 0 .0685-.17304.17092-.2413h.10266c.20506-.27358.61754-.34184.6858-.61754 0-.0683-.20505-.0683-.34184-.10239z" fill="#e1000f" id="path71" stroke-width=".264583"/>
  </g>
</svg>
