<?xml version="1.0" standalone="no"?>
<!DOCTYPE svg PUBLIC "-//W3C//DTD SVG 20010904//EN"
 "http://www.w3.org/TR/2001/REC-SVG-20010904/DTD/svg10.dtd">
<svg version="1.0" xmlns="http://www.w3.org/2000/svg"
 width="1112.000000pt" height="1112.000000pt" viewBox="0 0 1112.000000 1112.000000"
 preserveAspectRatio="xMidYMid meet">
<metadata>
Created by potrace 1.14, written by Peter Selinger 2001-2017
</metadata>
<g transform="translate(0.000000,1112.000000) scale(0.100000,-0.100000)"
fill="#000000" stroke="none">
<path d="M5458 11115 c-1 -2 -19 -6 -38 -9 -19 -4 -39 -8 -45 -10 -5 -1 -26
-6 -45 -10 -19 -5 -41 -13 -47 -18 -7 -6 -13 -7 -13 -4 0 4 -10 1 -22 -6 -13
-7 -25 -13 -28 -13 -4 0 -138 -74 -182 -100 -89 -53 -129 -75 -137 -75 -5 0
-11 -4 -13 -8 -3 -7 -97 -66 -108 -67 -3 0 -16 -8 -30 -17 -14 -9 -37 -22 -52
-29 -16 -7 -28 -16 -28 -21 0 -4 -5 -8 -11 -8 -6 0 -60 -29 -120 -65 -61 -36
-113 -65 -116 -65 -2 0 -24 -13 -47 -30 -24 -16 -46 -27 -48 -24 -3 2 -11 -2
-18 -11 -7 -8 -17 -15 -23 -15 -6 0 -18 -6 -26 -14 -9 -8 -38 -26 -66 -41 -68
-36 -113 -62 -225 -129 -52 -31 -100 -56 -107 -56 -7 0 -13 -4 -13 -10 0 -5
-7 -10 -15 -10 -8 0 -15 -4 -15 -9 0 -5 -12 -14 -27 -20 -41 -17 -137 -73
-145 -85 -4 -6 -8 -7 -8 -3 0 5 -13 -1 -29 -12 -16 -12 -34 -21 -39 -21 -6 0
-12 -3 -14 -8 -4 -9 -147 -92 -159 -92 -5 0 -9 -5 -9 -11 0 -5 -4 -8 -9 -4 -5
3 -12 1 -15 -4 -5 -8 -39 -28 -156 -94 -19 -10 -76 -43 -127 -73 -51 -30 -96
-54 -102 -54 -5 0 -11 -4 -13 -9 -1 -5 -25 -20 -53 -35 -27 -14 -68 -37 -90
-51 -22 -14 -47 -28 -55 -32 -8 -3 -26 -14 -40 -23 -26 -18 -128 -75 -167 -94
-13 -6 -23 -14 -23 -18 0 -5 -4 -8 -9 -8 -5 0 -92 -48 -193 -106 -100 -58
-201 -116 -223 -128 -21 -11 -44 -26 -51 -32 -7 -6 -26 -17 -43 -24 -17 -7
-31 -16 -31 -21 0 -5 -7 -9 -16 -9 -9 0 -28 -8 -42 -19 -15 -10 -48 -30 -73
-43 -78 -44 -93 -53 -107 -66 -7 -7 -18 -10 -23 -7 -5 4 -9 2 -9 -3 0 -5 -18
-17 -40 -28 -22 -10 -40 -23 -40 -27 0 -5 -4 -6 -9 -3 -5 3 -14 -1 -21 -9 -7
-8 -18 -15 -25 -15 -7 0 -18 -7 -25 -15 -7 -8 -16 -12 -21 -9 -5 3 -9 1 -9 -5
0 -5 -10 -13 -22 -17 -13 -4 -25 -10 -28 -13 -8 -10 -169 -101 -179 -101 -5 0
-11 -3 -13 -7 -4 -9 -48 -36 -98 -61 -19 -9 -37 -20 -40 -23 -3 -3 -22 -14
-42 -24 -21 -9 -38 -21 -38 -26 0 -5 -6 -9 -12 -9 -25 -1 -123 -76 -189 -145
-47 -49 -55 -58 -75 -90 -10 -16 -21 -32 -25 -35 -6 -5 -51 -88 -54 -100 -1
-3 -6 -16 -12 -30 -17 -40 -40 -112 -49 -150 -5 -19 -9 -1151 -10 -2515 -2
-2159 -1 -2488 12 -2545 20 -85 18 -79 37 -124 9 -21 17 -42 17 -47 0 -5 11
-27 25 -49 14 -22 22 -40 18 -40 -5 0 -3 -4 3 -8 6 -4 25 -28 42 -54 45 -66
133 -150 211 -202 83 -55 115 -73 121 -72 3 0 19 -9 37 -22 17 -12 36 -22 42
-22 6 0 11 -4 11 -10 0 -5 4 -10 9 -10 4 0 46 -22 92 -50 46 -27 93 -54 105
-59 12 -5 46 -25 76 -45 31 -19 58 -32 62 -29 3 4 6 1 6 -5 0 -7 6 -12 13 -12
7 0 23 -9 34 -20 12 -10 33 -22 47 -26 15 -3 31 -14 36 -23 5 -9 10 -13 10 -9
0 4 45 -20 100 -53 55 -32 105 -59 110 -59 6 0 10 -4 10 -10 0 -5 9 -10 19
-10 11 0 21 -4 23 -9 2 -4 46 -32 98 -61 52 -29 103 -60 114 -69 10 -9 19 -14
20 -12 0 3 12 -2 26 -11 63 -39 183 -108 187 -108 3 0 18 -9 34 -21 16 -11 29
-17 29 -12 0 4 4 3 8 -3 4 -6 25 -21 47 -33 22 -12 47 -26 55 -31 16 -10 157
-92 225 -130 22 -13 54 -31 70 -41 17 -10 46 -26 65 -36 19 -9 37 -19 40 -22
3 -4 16 -12 29 -19 13 -8 39 -22 57 -33 19 -10 51 -29 72 -40 20 -12 89 -52
152 -89 63 -37 160 -93 215 -124 55 -31 107 -61 115 -66 61 -38 146 -84 153
-82 4 1 7 -2 7 -8 0 -5 4 -10 9 -10 5 0 40 -19 77 -42 72 -43 151 -89 194
-110 14 -7 27 -15 30 -19 3 -3 12 -8 20 -12 8 -4 38 -20 65 -37 28 -17 58 -33
68 -37 9 -3 17 -10 17 -15 0 -5 4 -7 9 -3 5 3 12 1 15 -4 6 -8 115 -74 126
-76 3 0 16 -8 30 -17 55 -35 152 -88 161 -88 5 0 9 -4 9 -10 0 -5 6 -10 14
-10 7 0 19 -7 26 -15 7 -8 16 -12 21 -9 5 3 9 0 9 -5 0 -6 4 -11 10 -11 5 0
39 -18 75 -40 36 -22 68 -40 70 -40 5 0 87 -48 150 -88 11 -7 34 -19 50 -28
17 -8 44 -23 60 -34 69 -44 185 -94 270 -115 113 -30 288 -28 402 3 66 18 221
87 233 103 3 4 26 17 53 29 26 12 47 26 47 31 0 5 9 9 19 9 11 0 21 3 23 8 4
9 57 41 81 49 9 3 17 9 17 14 0 5 9 9 20 9 11 0 20 4 20 8 0 10 50 37 63 34 4
-1 7 2 7 6 0 4 22 19 50 33 27 13 50 27 50 32 0 4 6 7 14 7 8 0 21 6 28 13 7
6 31 21 53 32 22 11 42 23 45 26 3 3 17 12 32 20 38 20 164 91 239 136 35 20
67 36 72 35 4 -1 7 2 7 6 0 4 22 19 50 33 27 13 50 27 50 32 0 4 6 7 13 7 8 0
24 9 37 20 13 11 27 20 32 20 4 0 38 18 74 40 36 22 68 40 70 40 2 0 32 17 67
39 35 21 73 42 85 45 12 4 22 11 22 16 0 4 8 10 18 13 9 4 40 20 67 37 28 17
62 36 78 43 15 6 27 15 27 19 0 4 4 8 9 8 5 0 102 54 216 120 114 66 211 120
216 120 4 0 9 3 11 8 2 4 24 18 51 32 26 13 47 29 47 34 0 5 3 7 6 3 4 -3 23
5 43 18 19 14 41 25 48 25 7 0 13 5 13 10 0 6 4 10 9 10 5 0 49 24 98 52 91
54 106 63 195 112 29 15 60 34 68 41 8 7 25 16 38 19 12 4 22 12 22 17 0 5 8
9 17 9 9 0 24 7 34 16 18 16 29 23 134 79 30 16 55 33 55 38 0 4 4 6 9 3 4 -3
19 3 31 14 12 11 32 22 43 26 11 3 44 22 73 40 29 19 58 34 64 34 5 0 10 5 10
10 0 6 4 10 9 10 5 0 49 23 98 51 48 29 113 65 143 82 30 17 58 35 62 41 4 6
8 7 8 3 0 -5 13 1 29 12 16 12 34 21 40 21 6 0 11 4 11 8 0 4 12 13 28 20 29
13 84 44 92 52 3 3 25 16 50 29 80 43 84 46 98 59 7 6 17 12 22 12 16 0 236
134 285 174 65 54 119 110 158 166 17 25 35 48 41 52 6 4 7 8 2 8 -5 0 -2 8 6
18 25 28 78 169 96 255 12 59 12 4977 0 5027 -29 118 -55 188 -100 266 -86
150 -189 247 -368 346 -25 14 -69 39 -98 57 -29 17 -55 31 -58 31 -3 0 -18 9
-32 19 -30 21 -124 75 -162 94 -14 6 -27 14 -30 18 -3 3 -24 16 -47 28 -23 11
-45 25 -48 31 -4 6 -11 8 -16 5 -5 -4 -12 1 -15 9 -3 9 -10 14 -14 11 -4 -3
-19 4 -33 15 -14 11 -28 20 -32 20 -7 0 -84 45 -150 88 -11 6 -36 20 -55 30
-19 9 -37 20 -40 23 -3 3 -9 8 -15 10 -27 11 -150 84 -153 91 -2 4 -7 8 -12 8
-9 0 -247 135 -266 151 -6 5 -14 6 -17 2 -4 -3 -9 2 -13 11 -3 9 -11 16 -16
16 -10 0 -94 46 -173 95 -22 14 -49 29 -60 35 -11 5 -42 23 -70 40 -27 16 -61
35 -75 42 -14 7 -27 15 -30 18 -3 3 -25 16 -50 29 -80 43 -84 46 -97 58 -7 6
-23 15 -35 19 -12 3 -26 11 -32 16 -12 11 -110 67 -166 95 -19 10 -36 21 -38
25 -2 4 -24 17 -50 30 -26 12 -58 30 -72 39 -24 16 -51 32 -150 87 -25 14 -73
42 -107 63 -35 21 -72 40 -83 44 -11 3 -20 11 -20 16 0 5 -4 9 -9 9 -7 0 -87
45 -222 124 -20 11 -85 49 -145 84 -60 35 -116 67 -124 72 -8 5 -42 24 -75 43
-33 19 -80 47 -105 61 -25 15 -61 34 -80 44 -19 9 -40 24 -47 32 -7 8 -13 11
-13 6 0 -5 -8 -2 -17 6 -10 9 -45 30 -77 47 -33 17 -64 35 -70 40 -6 4 -31 20
-56 33 -25 14 -85 48 -133 77 -49 28 -93 51 -98 51 -5 0 -9 5 -9 10 0 6 -4 10
-9 10 -5 0 -43 20 -85 45 -42 24 -76 42 -76 39 0 -4 -6 -1 -14 5 -17 14 -146
60 -189 67 -39 6 -264 14 -269 9z"/>
</g>
</svg>
